<svg xmlns="http://www.w3.org/2000/svg" viewBox="0 0 1500 600" width="1500" height="600" role="img" aria-hidden="true"><defs><linearGradient id="g" x1="0" y1="0" x2="1" y2="1"><stop offset="0" stop-color="#F7F1E5"/><stop offset="1" stop-color="#F1E8D6"/></linearGradient></defs><rect width="1500" height="600" fill="url(#g)"/><g style="mix-blend-mode:multiply"><path d="M1185 193 a152 152 0 0 1 305 0z" fill="#E6CE9E" transform="rotate(239 1337 193)"/></g><g style="mix-blend-mode:multiply"><rect x="579" y="382" width="255" height="168" fill="#E6CE9E" transform="rotate(194 706 466)"/></g><g style="mix-blend-mode:multiply"><circle cx="946" cy="397" r="113" fill="none" stroke="#DBBB7E" stroke-width="41"/></g><g style="mix-blend-mode:multiply"><circle cx="681" cy="200" r="48" fill="#C98F3E"/></g><g style="mix-blend-mode:multiply"><circle cx="459" cy="407" r="110" fill="none" stroke="#E6CE9E" stroke-width="40"/></g><g style="mix-blend-mode:multiply"><circle cx="470" cy="191" r="65" fill="none" stroke="#E6CE9E" stroke-width="24"/></g><g style="mix-blend-mode:multiply"><circle cx="244" cy="178" r="125" fill="none" stroke="#E6CE9E" stroke-width="46"/></g><g style="mix-blend-mode:multiply"><circle cx="1155" cy="434" r="145" fill="#E6CE9E"/></g><g style="mix-blend-mode:multiply"><path d="M1294 437 a91 91 0 0 1 181 0z" fill="#EFE0C2" transform="rotate(298 1384 437)"/></g><g style="mix-blend-mode:multiply"><rect x="1028" y="97" width="185" height="122" fill="#DBBB7E" transform="rotate(3 1121 158)"/></g><g style="mix-blend-mode:multiply"><circle cx="871" cy="208" r="54" fill="#C98F3E"/></g></svg>
