<svg xmlns="http://www.w3.org/2000/svg" viewBox="0 0 1500 600" width="1500" height="600" role="img" aria-hidden="true"><defs><linearGradient id="g" x1="0" y1="0" x2="1" y2="1"><stop offset="0" stop-color="#F0F1EB"/><stop offset="1" stop-color="#E7E9E0"/></linearGradient></defs><rect width="1500" height="600" fill="url(#g)"/><g style="mix-blend-mode:multiply"><circle cx="356" cy="408" r="116" fill="none" stroke="#DCE2D2" stroke-width="42"/></g><g style="mix-blend-mode:multiply"><circle cx="788" cy="290" r="57" fill="#3B6B44"/></g><g style="mix-blend-mode:multiply"><circle cx="330" cy="169" r="109" fill="#DCE2D2"/></g><g style="mix-blend-mode:multiply"><rect x="482" y="104" width="173" height="113" fill="#B4C2A4" transform="rotate(205 568 160)"/></g><g style="mix-blend-mode:multiply"><circle cx="1489" cy="256" r="156" fill="#B4C2A4"/></g><g style="mix-blend-mode:multiply"><circle cx="794" cy="260" r="62" fill="#3B6B44"/></g><g style="mix-blend-mode:multiply"><circle cx="1232" cy="134" r="89" fill="#C8D2BC"/></g><g style="mix-blend-mode:multiply"><path d="M1231 391 a79 79 0 0 1 158 0z" fill="#DCE2D2" transform="rotate(94 1310 391)"/></g><g style="mix-blend-mode:multiply"><circle cx="113" cy="288" r="116" fill="#B4C2A4"/></g><g style="mix-blend-mode:multiply"><circle cx="617" cy="373" r="93" fill="#DCE2D2"/></g><g style="mix-blend-mode:multiply"><rect x="984" y="367" width="166" height="109" fill="#DCE2D2" transform="rotate(155 1067 421)"/></g><g style="mix-blend-mode:multiply"><circle cx="1050" cy="197" r="85" fill="#C8D2BC"/></g></svg>
